<?xml version="1.0" encoding="UTF-8" standalone="no"?>
<!-- Created with Inkscape (http://www.inkscape.org/) -->

<svg
   width="134.07118mm"
   height="134.63283mm"
   viewBox="0 0 134.07118 134.63283"
   version="1.1"
   id="svg5"
   xml:space="preserve"
   inkscape:version="1.2.2 (b0a8486541, 2022-12-01)"
   sodipodi:docname="favicon.svg"
   xmlns:inkscape="http://www.inkscape.org/namespaces/inkscape"
   xmlns:sodipodi="http://sodipodi.sourceforge.net/DTD/sodipodi-0.dtd"
   xmlns="http://www.w3.org/2000/svg"
   xmlns:svg="http://www.w3.org/2000/svg"><sodipodi:namedview
     id="namedview7"
     pagecolor="#ffffff"
     bordercolor="#000000"
     borderopacity="0.25"
     inkscape:showpageshadow="2"
     inkscape:pageopacity="0.0"
     inkscape:pagecheckerboard="0"
     inkscape:deskcolor="#d1d1d1"
     inkscape:document-units="mm"
     showgrid="false"
     inkscape:zoom="0.457453"
     inkscape:cx="354.13474"
     inkscape:cy="406.59915"
     inkscape:window-width="3440"
     inkscape:window-height="1371"
     inkscape:window-x="0"
     inkscape:window-y="32"
     inkscape:window-maximized="1"
     inkscape:current-layer="layer1" /><defs
     id="defs2" /><g
     inkscape:label="Layer 1"
     inkscape:groupmode="layer"
     id="layer1"
     transform="translate(-6.0719287,-21.429772)"><g
       id="g860"
       transform="translate(-41.18017,-7.6097163)"><path
         style="fill:#ffdc5d;fill-opacity:1;stroke-width:0.264583"
         d="m 73.804021,106.75282 c -6.835309,-5.65849 -5.568495,-4.8371 -19.935347,-12.925921 -5.566169,-3.133862 -6.432626,-3.907337 -6.585473,-5.878771 -0.09499,-1.225169 -0.0029,-1.573398 0.709281,-2.681857 1.705139,-2.653964 4.923138,-3.033463 8.878206,-1.047014 1.164167,0.584708 5.494207,2.635231 9.622311,4.556717 4.128106,1.921489 8.793911,4.258316 10.368459,5.192951 1.574549,0.934635 2.928631,1.699337 3.009072,1.699337 0.08044,0 0.177136,-5.91071 0.214873,-13.134906 l 0.06862,-13.134909 2.307882,-1.236061 c 2.805232,-1.502434 4.923771,-1.37817 7.069872,-2.885316 4.533165,-3.183517 7.615089,-8.455326 8.614257,-14.735182 0.257468,-1.618219 0.407715,-1.96342 1.0092,-2.318724 0.657913,-0.388639 0.752729,-0.381243 1.373616,0.107154 0.36682,0.288536 0.99079,1.090636 1.38662,1.782445 1.37313,2.399905 5.19257,7.203577 7.21785,9.07783 4.26813,3.949835 9.23455,6.653879 16.99713,9.254341 5.68537,1.904601 13.15887,-0.04096 20.62184,2.773044 l 2.51797,0.94943 0.0689,11.351715 0.0689,11.351717 2.06134,-1.172038 c 1.54655,-0.879337 4.08781,-2.271003 5.68854,-3.021645 16.22269,-7.607421 16.5812,-7.458165 18.07069,-7.612513 2.80253,-0.290409 4.52555,0.612852 5.6203,2.946326 0.63054,1.344023 0.63204,2.027269 0.007,3.251687 -0.69725,1.36615 -0.92074,1.528855 -5.98128,4.354621 -13.80204,7.706952 -13.28769,7.373972 -20.24062,13.103062 l -6.48229,5.34129 c -23.23714,2.63771 -40.02227,1.78791 -67.997907,-0.0521 z"
         id="path876"
         sodipodi:nodetypes="csssssssscssssssssscccsssscssccc" /><rect
         style="fill:#df1f32;fill-opacity:1;stroke-width:0.286682"
         id="rect2172"
         width="10.279672"
         height="14.305706"
         x="109.11405"
         y="105.87112"
         ry="5.7871614" /><path
         style="fill:#f9ca55;fill-opacity:1;stroke-width:0.264583"
         d="m 77.53441,114.30277 c -1.004975,-0.36826 -4.978339,-3.42673 -7.099768,-5.46499 -0.656235,-0.63051 -2.851142,-1.91989 -5.81019,-3.41314 -4.359448,-2.19993 -4.8185,-2.49909 -5.5114,-3.59168 -0.81664,-1.28771 -1.212317,-3.417924 -0.861806,-4.639725 l 0.207698,-0.723984 4.340944,2.409137 c 3.913046,2.171662 4.98232,2.937752 10.847539,7.771882 l 6.506593,5.36274 c 0.30726,-16.346 0.299973,-9.62813 0.32323,2.70525 l -0.95536,-0.0186 c -0.525449,-0.0103 -1.419812,-0.18884 -1.987473,-0.39685 z m 70.31014,0.0348 c 0.0963,-0.25096 0.17509,-0.84235 0.17509,-1.3142 0,-0.79907 0.44909,-1.22787 6.54844,-6.25246 5.84662,-4.81639 7.01552,-5.65648 10.90658,-7.838532 3.07292,-1.723244 4.41768,-2.350333 4.56002,-2.126422 0.33707,0.530268 0.23368,3.320514 -0.15776,4.257344 -0.58005,1.38827 -1.31706,1.91056 -6.24686,4.42695 -4.20323,2.1455 -4.92271,2.61961 -7.80212,5.14122 -3.4766,3.0446 -4.82729,3.84231 -6.83204,4.03494 -1.17449,0.11285 -1.30639,0.0752 -1.15135,-0.32884 z"
         id="path874"
         sodipodi:nodetypes="ssssscsscccssssssssssss" /><path
         style="fill:#ffac33;fill-opacity:1;stroke-width:0.264583"
         d="m 96.127561,89.119824 c -0.329107,-0.419645 -0.319749,-0.429003 0.0999,-0.0999 0.254662,0.199721 0.463021,0.40808 0.463021,0.463021 0,0.217763 -0.217273,0.0776 -0.562917,-0.363125 z"
         id="path1554" /><path
         style="fill:#ffac33;fill-opacity:1;stroke-width:0.264583"
         d="M 76.93129,94.076355 C 75.389989,93.16459 72.980876,91.886872 71.577706,91.236981 l -2.551215,-1.181618 -0.1038,-16.744392 c -0.10949,-17.662321 0.05568,-18.459892 1.423747,-22.567829 2.122212,-6.372424 7.451629,-12.278565 14.105133,-15.631519 3.670336,-1.849623 9.405225,-2.848264 13.637508,-2.374759 2.072491,0.231869 2.173491,0.215957 4.264681,-0.671814 4.91852,-2.08805 8.34533,-2.813899 14.15481,-2.998194 12.715,-0.403359 22.67849,3.64201 31.51107,12.7941 5.33712,5.530186 8.62327,11.211353 10.33211,17.862372 1.17152,4.559745 1.29982,6.37105 1.30481,18.421405 l 0.005,11.448346 -2.71198,1.269881 c -1.49159,0.698434 -3.86104,1.946288 -5.26544,2.773008 -1.4044,0.82672 -2.62479,1.503127 -2.71197,1.503127 -0.0872,0 -0.15852,-5.042683 -0.15852,-11.205961 V 72.72717 l -3.10885,-0.178491 c -10.83936,-0.622331 -20.61639,-3.089915 -28.75085,-7.256311 -5.71123,-2.925244 -11.53108,-8.550852 -14.76658,-14.273736 -0.84113,-1.487779 -1.85032,-2.446203 -2.575775,-2.446203 -0.656167,0 -1.59794,1.120598 -1.59794,1.901357 0,1.255683 -1.318522,5.886056 -2.207903,7.753683 -1.039829,2.183561 -3.533127,5.401638 -5.307473,6.850309 -2.480842,2.025491 -5.309559,3.473805 -9.363623,4.126078 l -1.001625,0.161155 0.07558,13.083217 c 0.04157,7.195772 -0.01793,13.345093 -0.0907,13.342341 -0.07276,-0.0028 -1.64506,-0.80245 -3.186359,-1.714214 z"
         id="path1552"
         sodipodi:nodetypes="cscssssssssccsssscsssssssscsscc" /><path
         style="fill:#9268ca;fill-opacity:1;stroke-width:0.264583"
         d="m 60.497779,163.06349 c -0.525515,-0.55938 -0.617962,-1.29275 -1.286817,-10.20814 -0.804539,-10.72396 -0.77949,-11.21077 0.735612,-14.29575 1.036311,-2.11009 3.638543,-4.80127 6.316822,-6.53275 1.091406,-0.70558 3.746516,-2.07682 5.900245,-3.04719 2.15373,-0.97038 3.969261,-1.81771 4.03451,-1.88296 0.06525,-0.0652 -0.419246,-1.06139 -1.076659,-2.21364 -2.128043,-3.72984 -4.048133,-9.69557 -4.503332,-13.99189 -0.229172,-2.16298 -0.548852,-2.25541 3.38479,0.97865 2.53124,2.08107 4.054213,2.84844 5.653175,2.84844 0.88024,0 0.890132,-0.0133 0.835657,-1.12448 -0.03032,-0.61846 -0.02942,-4.52477 0.0021,-8.68068 0.06354,-8.405752 0.09741,-8.577744 1.680048,-8.531913 0.732243,0.02122 25.45968,10.665833 29.02117,12.492983 l 0.89924,0.46134 -8.56178,2.80312 c -4.70897,1.54171 -10.670135,3.49079 -13.247029,4.33128 -3.225749,1.05212 -4.610872,1.61779 -4.446465,1.81589 0.131336,0.15825 1.065299,0.85245 2.075476,1.54267 l 1.836682,1.25495 12.928526,-5.71678 c 7.1107,-3.14423 13.56226,-6.00251 14.33682,-6.35174 4.88327,-2.21072 10.83755,-4.86296 15.04531,-6.73213 7.63469,-3.397262 13.54326,-5.877556 14.04378,-5.895276 1.7914,-0.06343 1.78179,-0.115249 1.78179,9.608646 v 8.72185 l 0.81277,1.4e-4 c 1.98507,2.6e-4 3.51466,-0.92154 8.33193,-5.02153 l 1.39255,-1.18521 -0.18234,2.18645 c -0.36466,4.37263 -2.35714,10.47374 -4.75862,14.57123 -0.53134,0.90661 -0.96262,1.73129 -0.95839,1.83264 0.004,0.10134 1.56499,0.89241 3.46835,1.75794 7.18544,3.26745 10.48477,5.87899 12.45785,9.86082 0.98938,1.99665 1.11277,2.46141 1.20095,4.52351 0.054,1.26403 -0.2008,6.16737 -0.56634,10.8963 -0.62468,8.08134 -0.69905,8.62594 -1.23754,9.06198 -0.51316,0.41553 -1.29425,0.46424 -7.48892,0.46706 l -6.91612,0.003 -17.27152,-11.57259 c -9.84412,-6.59594 -17.11461,-11.63209 -16.90664,-11.71096 0.20069,-0.0761 5.08357,-4.30246 10.85085,-9.3919 9.93753,-8.76956 10.45506,-9.2707 9.89518,-9.58177 -0.32493,-0.18053 -0.80681,-0.33246 -1.07083,-0.33761 -0.45114,-0.009 -10.90912,6.93698 -48.260899,32.05305 L 75.011689,163.66603 H 68.03782 c -6.915331,0 -6.978619,-0.005 -7.540058,-0.60269 z"
         id="path872"
         sodipodi:nodetypes="csssssssssscsscsssscsccsscsscsscsssssccsssscscscc" /><path
         style="fill:#8c8c8c;fill-opacity:1;stroke-width:0.264583"
         d="m 165.73248,134.89274 -0.9118,-0.99219 0.99219,0.9118 c 0.5457,0.50149 0.99219,0.94797 0.99219,0.99219 0,0.20204 -0.2239,0.0117 -1.07258,-0.9118 z"
         id="path1749" /><path
         style="fill:#8c8c8c;fill-opacity:1;stroke-width:0.264583"
         d="m 59.140534,153.72225 c 0.0127,-0.30822 0.07539,-0.37092 0.159853,-0.15985 0.07643,0.191 0.06703,0.4192 -0.02089,0.50712 -0.08792,0.0879 -0.150453,-0.0684 -0.138964,-0.34727 z"
         id="path1747" /><path
         style="fill:#8c8c8c;fill-opacity:1;stroke-width:0.264583"
         d="m 168.67803,158.22017 c 0.0127,-0.30823 0.0754,-0.37092 0.15985,-0.15985 0.0764,0.19099 0.067,0.4192 -0.0209,0.50712 -0.0879,0.0879 -0.15046,-0.0684 -0.13897,-0.34727 z"
         id="path1745" /><path
         id="path870"
         style="fill:#7450a8;fill-opacity:1;stroke-width:0.264583"
         d="m 75.40475,163.43508 c 0.25206,-0.23174 17.011247,-11.50099 46.99943,-31.60346 8.83102,-5.91985 16.27243,-10.75914 16.53646,-10.75398 0.26402,0.005 0.7459,0.15708 1.07083,0.33761 0.55988,0.31107 0.0423,0.81221 -9.89518,9.58177 -5.76728,5.08944 -10.2618,8.99556 -10.46937,9.07408 -0.22871,0.0865 1.8977,1.65928 5.39726,3.99198 3.17606,2.11707 11.09877,7.09935 17.26177,11.56505 l 11.09312,8.03805 h -39.12284 c -22.317449,0 -39.014863,-0.0993 -38.87148,-0.2311 z m 12.554478,-43.57196 c -0.945885,-0.65969 -1.871434,-1.35008 -2.056775,-1.53421 -0.272095,-0.2703 0.79783,-0.70229 5.55625,-2.24336 3.241278,-1.04972 9.286277,-3.02474 13.433327,-4.38893 7.03102,-2.31287 6.4874,-2.14099 7.22672,-2.34764 0.39325,0.20336 2.04768,0.77372 2.30957,0.77676 0.26188,0.003 -5.24492,2.33892 -12.1273,5.39181 -6.882375,3.05289 -12.537844,5.54943 -12.567705,5.54786 -0.02986,-0.002 -0.828201,-0.5426 -1.774087,-1.20229 z"
         sodipodi:nodetypes="sscssssscsssssscsscs" /><rect
         style="fill:#662113;fill-opacity:1;stroke-width:0.286682"
         id="rect2166"
         width="10.279672"
         height="14.305706"
         x="94.450714"
         y="76.48616"
         ry="5.7871614" /><rect
         style="fill:#662113;fill-opacity:1;stroke-width:0.286682"
         id="rect2168"
         width="10.279672"
         height="14.305706"
         x="123.80835"
         y="76.512283"
         ry="5.7871614" /><rect
         style="fill:#c1694f;fill-opacity:1;stroke-width:0.2317"
         id="rect2170"
         width="6.5263624"
         height="14.718776"
         x="95.203636"
         y="-121.49217"
         ry="3.2631812"
         transform="rotate(90)" /></g></g></svg>
