<?xml version="1.0" encoding="UTF-8" standalone="no"?>
<!-- Created with Inkscape (http://www.inkscape.org/) -->

<svg
   width="103.10591mm"
   height="105.01256mm"
   viewBox="0 0 103.10591 105.01255"
   version="1.1"
   id="svg1"
   xml:space="preserve"
   inkscape:version="1.3 (0e150ed, 2023-07-21)"
   sodipodi:docname="favicon.svg"
   xmlns:inkscape="http://www.inkscape.org/namespaces/inkscape"
   xmlns:sodipodi="http://sodipodi.sourceforge.net/DTD/sodipodi-0.dtd"
   xmlns:xlink="http://www.w3.org/1999/xlink"
   xmlns="http://www.w3.org/2000/svg"
   xmlns:svg="http://www.w3.org/2000/svg"><sodipodi:namedview
     id="namedview1"
     pagecolor="#000711"
     bordercolor="#000000"
     borderopacity="0.25"
     inkscape:showpageshadow="2"
     inkscape:pageopacity="0.0"
     inkscape:pagecheckerboard="0"
     inkscape:deskcolor="#d1d1d1"
     inkscape:document-units="mm"
     inkscape:zoom="0.59344975"
     inkscape:cx="-94.363507"
     inkscape:cy="-40.441503"
     inkscape:window-width="1728"
     inkscape:window-height="1051"
     inkscape:window-x="0"
     inkscape:window-y="38"
     inkscape:window-maximized="1"
     inkscape:current-layer="layer1" /><defs
     id="defs1"><linearGradient
       id="linearGradient212"
       inkscape:collect="always"><stop
         style="stop-color:#4c0ada;stop-opacity:1;"
         offset="0"
         id="stop213" /><stop
         style="stop-color:#4b09d7;stop-opacity:1;"
         offset="0.23520152"
         id="stop216" /><stop
         style="stop-color:#000000;stop-opacity:1;"
         offset="0.39538255"
         id="stop215" /><stop
         style="stop-color:#4a09d6;stop-opacity:1;"
         offset="0.59528929"
         id="stop217" /><stop
         style="stop-color:#4c0ada;stop-opacity:1;"
         offset="1"
         id="stop214" /></linearGradient><linearGradient
       id="linearGradient211"
       inkscape:collect="always"><stop
         style="stop-color:#543930;stop-opacity:1;"
         offset="0.72568941"
         id="stop211" /><stop
         style="stop-color:#90665a;stop-opacity:1;"
         offset="1"
         id="stop212" /></linearGradient><clipPath
       clipPathUnits="userSpaceOnUse"
       id="clipPath6"><rect
         style="fill:#ffffff;fill-opacity:1;stroke-width:0.394999;stroke-miterlimit:1000;paint-order:markers stroke fill"
         id="rect6"
         width="8.8280573"
         height="9.8746367"
         x="-328.83398"
         y="414.58859" /></clipPath><radialGradient
       inkscape:collect="always"
       xlink:href="#linearGradient211"
       id="radialGradient212"
       cx="-192.49786"
       cy="586.91144"
       fx="-192.49786"
       fy="586.91144"
       r="35.844769"
       gradientTransform="matrix(1.2592518,0,0,1.3279271,299.96296,-723.30542)"
       gradientUnits="userSpaceOnUse" /><linearGradient
       inkscape:collect="always"
       xlink:href="#linearGradient212"
       id="linearGradient214"
       x1="-214.42772"
       y1="588.65918"
       x2="-163.76767"
       y2="672.32977"
       gradientUnits="userSpaceOnUse"
       gradientTransform="translate(250.05753,-530.60232)" /><filter
       inkscape:collect="always"
       style="color-interpolation-filters:sRGB"
       id="filter220"
       x="-0.07302398"
       y="-0.20564334"
       width="1.146048"
       height="1.4112867"><feGaussianBlur
         inkscape:collect="always"
         stdDeviation="2.5918267"
         id="feGaussianBlur220" /></filter></defs><g
     inkscape:label="Layer 1"
     inkscape:groupmode="layer"
     id="layer1"
     transform="translate(-4.6692654,-9.4384248)"><rect
       style="fill:#ffca28;fill-opacity:1;stroke-width:0.394999;stroke-miterlimit:1000;paint-order:markers stroke fill"
       id="rect211"
       width="59.521526"
       height="51.011333"
       x="26.44689"
       y="30.68754" /><rect
       style="fill:#221362;fill-opacity:1;stroke-width:0.394999;stroke-miterlimit:1000;paint-order:markers stroke fill"
       id="rect210"
       width="43.100063"
       height="14.419102"
       x="37.612022"
       y="100.02445" /><text
       xml:space="preserve"
       style="font-style:normal;font-variant:normal;font-weight:600;font-stretch:normal;font-size:2.46944px;font-family:Sora;-inkscape-font-specification:'Sora Semi-Bold';letter-spacing:0px;fill:#ffffff;stroke:none;stroke-width:0.394999;stroke-miterlimit:1000;paint-order:markers stroke fill"
       x="342.25797"
       y="-458.78043"
       id="text2"><tspan
         sodipodi:role="line"
         id="tspan2"
         style="stroke-width:0.395"
         x="342.25797"
         y="-458.78043" /></text><text
       xml:space="preserve"
       style="font-style:normal;font-variant:normal;font-weight:600;font-stretch:normal;font-size:12.7px;font-family:Sora;-inkscape-font-specification:'Sora Semi-Bold';letter-spacing:0px;fill:#000711;fill-opacity:1;stroke:none;stroke-width:0.394999;stroke-miterlimit:1000;paint-order:markers stroke fill"
       x="271.77328"
       y="-446.63474"
       id="text6"><tspan
         sodipodi:role="line"
         style="fill:#ffffff;stroke-width:0.395"
         x="271.77328"
         y="-446.63474"
         id="tspan7" /></text><text
       xml:space="preserve"
       style="font-style:normal;font-variant:normal;font-weight:600;font-stretch:normal;font-size:12.7px;font-family:Sora;-inkscape-font-specification:'Sora Semi-Bold';letter-spacing:0px;fill:#ffffff;fill-opacity:1;stroke:none;stroke-width:0.394999;stroke-miterlimit:1000;paint-order:markers stroke fill"
       x="270.80814"
       y="-438.431"
       id="text10"><tspan
         sodipodi:role="line"
         id="tspan10"
         style="stroke-width:0.395"
         x="270.80814"
         y="-438.431" /></text><text
       xml:space="preserve"
       style="font-style:normal;font-variant:normal;font-weight:600;font-stretch:normal;font-size:14.7624px;font-family:Sora;-inkscape-font-specification:'Sora Semi-Bold';letter-spacing:0px;white-space:pre;inline-size:112.407;fill:#ffffff;fill-opacity:1;stroke:none;stroke-width:0.394999;stroke-miterlimit:1000;paint-order:markers stroke fill"
       x="1209.7362"
       y="28.194996"
       transform="translate(-13.442548,441.35808)"
       id="text168"><tspan
         x="1209.7362"
         y="28.194996"
         id="tspan3"><tspan
           style="stroke-width:0.395001"
           id="tspan1">&#10;</tspan></tspan></text><text
       xml:space="preserve"
       style="font-style:normal;font-variant:normal;font-weight:600;font-stretch:normal;font-size:14.7624px;line-height:0.8;font-family:Sora;-inkscape-font-specification:'Sora Semi-Bold';letter-spacing:0px;white-space:pre;inline-size:94.8276;fill:#ffffff;fill-opacity:1;stroke:none;stroke-width:0.394999;stroke-miterlimit:1000;paint-order:markers stroke fill"
       x="1299.9155"
       y="152.52762"
       transform="translate(-103.44552,448.38181)"
       id="text169"><tspan
         x="1299.9155"
         y="152.52762"
         id="tspan5"><tspan
           style="font-weight:normal;font-size:8.46667px;-inkscape-font-specification:Sora;stroke-width:0.395001"
           id="tspan4">&#10;</tspan></tspan></text><text
       xml:space="preserve"
       style="font-style:normal;font-variant:normal;font-weight:600;font-stretch:normal;font-size:14.7624px;font-family:Sora;-inkscape-font-specification:'Sora Semi-Bold';letter-spacing:0px;white-space:pre;inline-size:112.407;fill:#ffffff;fill-opacity:1;stroke:none;stroke-width:0.394999;stroke-miterlimit:1000;paint-order:markers stroke fill"
       x="1209.7362"
       y="28.194996"
       transform="translate(-494.85694,765.76348)"
       id="text187"><tspan
         x="1209.7362"
         y="28.194996"
         id="tspan8"><tspan
           style="stroke-width:0.395001"
           id="tspan6">&#10;</tspan></tspan></text><path
       style="fill:url(#radialGradient212);fill-opacity:1;stroke-width:0.394999;stroke-miterlimit:1000;paint-order:markers stroke fill"
       d="m 57.284895,9.4398298 c 8.470983,0 22.097213,2.6214602 30.246293,14.8476302 8.4196,12.63203 7.20052,43.084691 0.0612,70.118961 -6.69704,25.359349 -15.08872,-4.41269 -15.08872,-4.41269 0,0 10.99601,-15.71749 10.79826,-22.49054 -0.19775,-6.773071 -0.20485,-17.027231 -2.23814,-19.532381 -2.10102,-2.5886 -11.35742,-7.36209 -15.36192,-14.62953 -7.739303,7.61283 -20.877143,12.33717 -29.499003,14.11812 -3.46501,0.71573 -5.75057,13.12243 -6.54158,21.526941 -0.37248,3.95765 16.74757,16.15356 9.51203,24.91232 -1.50518,1.82204 -8.2981,-0.0556 -11.82526,1.75193 -1.63969,0.84026 -5.22779,-25.42264 -5.31186,-30.719311 -0.195,-12.28508 -1.87985,-29.42835 4.99764,-39.62897 6.39309,-9.48216 16.42454,-15.9736102 30.2511,-15.8624802 z"
       id="path211"
       sodipodi:nodetypes="csscsscsssssscc" /><path
       style="fill:#eda600;fill-opacity:1;stroke-width:0.394999;stroke-miterlimit:1000;paint-order:markers stroke fill"
       d="m 33.017985,85.135731 c -12.03215,-5.55059 -17.719303,-8.69211 -22.053543,-10.49978 -5.1281795,-2.13881 -2.7185395,-9.133261 2.91104,-7.76095 7.263013,1.77047 11.606123,4.82433 21.403073,9.50205 15.81999,7.55351 -2.26057,8.75868 -2.26057,8.75868 z"
       id="path209"
       sodipodi:nodetypes="csssc" /><circle
       style="fill:#404040;fill-opacity:1;stroke-width:0.394999;stroke-miterlimit:1000;paint-order:markers stroke fill"
       id="path201"
       cx="71.485489"
       cy="56.881512"
       r="5.7120709" /><circle
       style="fill:#404040;fill-opacity:1;stroke-width:0.394999;stroke-miterlimit:1000;paint-order:markers stroke fill"
       id="circle201"
       cx="44.037025"
       cy="57.046307"
       r="5.7120709" /><path
       style="fill:#6d4c41;fill-opacity:1;stroke-width:0.394999;stroke-miterlimit:1000;paint-order:markers stroke fill"
       d="m 43.937905,47.00858 c 4.12358,0 7.76204,2.57116 6.98584,4.5117 -0.77621,1.9405 -5.77302,0.097 -7.42246,0.097 -1.64943,0 -5.48194,2.23157 -6.69476,0.33959 -1.21282,-1.89201 3.00779,-5.09384 7.13138,-4.94831 z"
       id="path202" /><path
       id="path204"
       style="fill:#e59600;stroke-width:0.394999;stroke-miterlimit:1000;paint-order:markers stroke fill"
       d="m 61.936058,66.616911 c 0,2.35903 -2.486473,3.7735 -4.763723,3.7735 -2.23303,0 -4.76373,-1.41446 -4.76373,-3.7735 0,-1.812941 2.1328,-1.781871 4.76373,-1.781871 2.63093,0 4.763723,0.0499 4.763723,1.781871 z"
       sodipodi:nodetypes="sssss" /><path
       style="opacity:0.754658;mix-blend-mode:normal;fill:#733b0a;fill-opacity:1;stroke-width:0.394999;stroke-miterlimit:1000;paint-order:markers stroke fill;filter:url(#filter220)"
       d="m 30.386425,66.683571 27.7491,11.11384 26.308343,-10.83751 17.046542,1.99348 -5.533582,7.49324 -35.921533,20.48536 -43.727643,-25.63385 z"
       id="path220"
       sodipodi:nodetypes="cccccccc" /><ellipse
       style="fill:#94482d;fill-opacity:1;stroke-width:0.394999;stroke-miterlimit:1000;paint-order:markers stroke fill"
       id="circle204"
       cx="57.284897"
       cy="79.175392"
       rx="6.6742063"
       ry="5.7120709" /><path
       id="path219"
       style="fill:#452f27;fill-opacity:1;stroke-width:0.394999;stroke-miterlimit:1000;paint-order:markers stroke fill"
       d="m 23.202135,76.260901 c 1.21522,9.13695 3.08356,19.93396 4.146,19.38951 3.52715,-1.80753 10.31994,0.0702 11.82511,-1.75183 4.53366,-5.48808 -0.49287,-12.32286 -4.78885,-17.63768 z m 57.419753,0 c -3.19856,6.68926 -8.11837,13.73301 -8.11837,13.73301 0,0 8.39197,29.771969 15.089,4.41265 1.5738,-5.95946 2.84015,-12.0815 3.79874,-18.14566 z" /><path
       style="fill:#ffce38;fill-opacity:1;stroke-width:0.394999;stroke-miterlimit:1000;paint-order:markers stroke fill"
       d="M 34.213515,69.967391 C 20.749985,62.67357 14.976122,57.0452 12.129402,53.31029 8.7612225,48.89123 2.6053825,52.9942 5.3590925,58.09249 c 3.55269,6.57755 8.8653495,20.112051 21.5999825,23.819611 16.83191,4.90044 7.25444,-11.94471 7.25444,-11.94471 z"
       id="path207"
       sodipodi:nodetypes="csssc" /><path
       style="fill:url(#linearGradient214);fill-opacity:1;stroke-width:0.394999;stroke-miterlimit:1000;paint-order:markers stroke fill"
       d="M 102.87487,114.37883 C 101.58111,102.24986 92.443948,96.347081 87.592348,94.406441 c -4.85159,-1.94064 -49.567113,-23.6111 -52.235483,-24.74314 -2.66838,-1.13202 -3.80042,-0.64688 -4.68988,0.88947 -0.88945,1.53633 -4.68987,8.2477 -5.17503,9.13718 -0.48516,0.88945 -0.95945,2.3482 0.40653,3.25884 1.36599,0.91067 47.940593,31.502189 47.940593,31.502189 z"
       id="path206" /><path
       style="fill:#eda600;fill-opacity:1;stroke-width:0.394999;stroke-miterlimit:1000;paint-order:markers stroke fill"
       d="m 81.253558,84.936761 c 12.03215,-5.55059 17.7193,-8.69211 22.053542,-10.49978 5.12818,-2.13881 2.71854,-9.133261 -2.91104,-7.76095 -7.263012,1.77047 -11.606122,4.82433 -21.403072,9.50205 -15.81999,7.55351 2.26057,8.75868 2.26057,8.75868 z"
       id="path210"
       sodipodi:nodetypes="csssc" /><path
       style="fill:#ffce38;fill-opacity:1;stroke-width:0.394999;stroke-miterlimit:1000;paint-order:markers stroke fill"
       d="M 78.230928,70.200061 C 91.694458,62.90624 97.468318,57.27787 100.31504,53.54296 c 3.36818,-4.41906 9.52402,-0.31609 6.77031,4.7822 -3.55269,6.57755 -6.41983,19.720661 -20.898872,23.755301 -16.88738,4.70573 -7.95555,-11.8804 -7.95555,-11.8804 z"
       id="path208"
       sodipodi:nodetypes="csssc" /><path
       style="fill:#5913f1;fill-opacity:1;stroke-width:0.394999;stroke-miterlimit:1000;paint-order:markers stroke fill"
       d="m 11.568672,114.37883 c 1.29376,-12.12897 10.430923,-18.031749 15.282523,-19.972389 4.85159,-1.94064 49.567113,-23.6111 52.235483,-24.74314 2.66838,-1.13202 3.80042,-0.64688 4.68988,0.88947 0.88945,1.53633 4.68987,8.2477 5.17503,9.13718 0.48516,0.88945 0.95945,2.3482 -0.40653,3.25884 -1.36599,0.91067 -47.940593,31.502189 -47.940593,31.502189 z"
       id="path205" /><path
       style="fill:#6d4c41;fill-opacity:1;stroke-width:0.394999;stroke-miterlimit:1000;paint-order:markers stroke fill"
       d="m 71.530808,46.87415 c -4.12358,0 -7.76204,2.57116 -6.98584,4.5117 0.77621,1.9405 5.77302,0.097 7.42246,0.097 1.64943,0 5.48194,2.23157 6.69476,0.33959 1.21282,-1.89201 -3.00779,-5.09384 -7.13138,-4.94831 z"
       id="path218" /></g></svg>
