<?xml version="1.0" encoding="UTF-8" standalone="no"?>
<!-- Created with Inkscape (http://www.inkscape.org/) -->

<svg
   width="813.91107mm"
   height="287.75388mm"
   viewBox="0 0 813.91106 287.75388"
   version="1.1"
   id="svg1"
   inkscape:version="1.3 (0e150ed, 2023-07-21)"
   sodipodi:docname="logo&amp;tag.svg"
   xmlns:inkscape="http://www.inkscape.org/namespaces/inkscape"
   xmlns:sodipodi="http://sodipodi.sourceforge.net/DTD/sodipodi-0.dtd"
   xmlns:xlink="http://www.w3.org/1999/xlink"
   xmlns="http://www.w3.org/2000/svg"
   xmlns:svg="http://www.w3.org/2000/svg">
  <sodipodi:namedview
     id="namedview1"
     pagecolor="#000000"
     bordercolor="#000000"
     borderopacity="0.25"
     inkscape:showpageshadow="2"
     inkscape:pageopacity="0.0"
     inkscape:pagecheckerboard="0"
     inkscape:deskcolor="#d1d1d1"
     inkscape:document-units="mm"
     inkscape:zoom="0.099499739"
     inkscape:cx="1331.6618"
     inkscape:cy="-683.41888"
     inkscape:window-width="1728"
     inkscape:window-height="1051"
     inkscape:window-x="0"
     inkscape:window-y="38"
     inkscape:window-maximized="1"
     inkscape:current-layer="layer1" />
  <defs
     id="defs1">
    <radialGradient
       inkscape:collect="always"
       xlink:href="#linearGradient211"
       id="radialGradient212"
       cx="-192.49786"
       cy="586.91144"
       fx="-192.49786"
       fy="586.91144"
       r="35.844769"
       gradientTransform="matrix(1.2592518,0,0,1.3279271,-619.80394,-26.221597)"
       gradientUnits="userSpaceOnUse" />
    <linearGradient
       id="linearGradient211"
       inkscape:collect="always">
      <stop
         style="stop-color:#543930;stop-opacity:1;"
         offset="0.72568941"
         id="stop211" />
      <stop
         style="stop-color:#90665a;stop-opacity:1;"
         offset="1"
         id="stop212" />
    </linearGradient>
    <filter
       inkscape:collect="always"
       style="color-interpolation-filters:sRGB"
       id="filter220"
       x="-0.073023987"
       y="-0.20564334"
       width="1.146048"
       height="1.4112867">
      <feGaussianBlur
         inkscape:collect="always"
         stdDeviation="2.5918267"
         id="feGaussianBlur220" />
    </filter>
    <linearGradient
       inkscape:collect="always"
       xlink:href="#linearGradient212"
       id="linearGradient214"
       x1="-214.42772"
       y1="588.65918"
       x2="-163.76767"
       y2="672.32977"
       gradientUnits="userSpaceOnUse"
       gradientTransform="translate(-669.70937,166.4815)" />
    <linearGradient
       id="linearGradient212"
       inkscape:collect="always">
      <stop
         style="stop-color:#4c0ada;stop-opacity:1;"
         offset="0"
         id="stop213" />
      <stop
         style="stop-color:#4b09d7;stop-opacity:1;"
         offset="0.23520152"
         id="stop216" />
      <stop
         style="stop-color:#000000;stop-opacity:1;"
         offset="0.39538255"
         id="stop215" />
      <stop
         style="stop-color:#4a09d6;stop-opacity:1;"
         offset="0.59528929"
         id="stop217" />
      <stop
         style="stop-color:#4c0ada;stop-opacity:1;"
         offset="1"
         id="stop214" />
    </linearGradient>
  </defs>
  <g
     inkscape:label="Layer 1"
     inkscape:groupmode="layer"
     id="layer1"
     transform="translate(1376.0787,-10.176133)">
    <g
       id="g2"
       transform="matrix(0.38144041,0,0,0.38144041,-739.52339,-11.622144)"
       style="stroke-width:2.62164">
      <rect
         style="fill:#ffca28;fill-opacity:1;stroke-width:1.03555;stroke-miterlimit:1000;paint-order:markers stroke fill"
         id="rect211"
         width="59.521526"
         height="51.011333"
         x="-893.32043"
         y="727.77136" />
      <rect
         style="fill:#221362;fill-opacity:1;stroke-width:1.03555;stroke-miterlimit:1000;paint-order:markers stroke fill"
         id="rect210"
         width="43.100063"
         height="14.419102"
         x="-882.15521"
         y="797.10828" />
      <path
         style="fill:url(#radialGradient212);fill-opacity:1;stroke-width:1.03555;stroke-miterlimit:1000;paint-order:markers stroke fill"
         d="m -862.48201,706.52365 c 8.47098,0 22.09721,2.62146 30.24629,14.84763 8.4196,12.63203 7.20052,43.08469 0.0612,70.11896 -6.69704,25.35935 -15.08872,-4.41269 -15.08872,-4.41269 0,0 10.99601,-15.71749 10.79826,-22.49054 -0.19775,-6.77307 -0.20485,-17.02723 -2.23814,-19.53238 -2.10102,-2.5886 -11.35742,-7.36209 -15.36192,-14.62953 -7.7393,7.61283 -20.87714,12.33717 -29.499,14.11812 -3.46501,0.71573 -5.75057,13.12243 -6.54158,21.52694 -0.37248,3.95765 16.74757,16.15356 9.51203,24.91232 -1.50518,1.82204 -8.2981,-0.0556 -11.82526,1.75193 -1.63969,0.84026 -5.22779,-25.42264 -5.31186,-30.71931 -0.195,-12.28508 -1.87985,-29.42835 4.99764,-39.62897 6.39309,-9.48216 16.42454,-15.97361 30.2511,-15.86248 z"
         id="path211"
         sodipodi:nodetypes="csscsscsssssscc" />
      <path
         style="fill:#eda600;fill-opacity:1;stroke-width:1.03555;stroke-miterlimit:1000;paint-order:markers stroke fill"
         d="m -886.74892,782.21955 c -12.03215,-5.55059 -17.7193,-8.69211 -22.05354,-10.49978 -5.12818,-2.13881 -2.71854,-9.13326 2.91104,-7.76095 7.26301,1.77047 11.60612,4.82433 21.40307,9.50205 15.81999,7.55351 -2.26057,8.75868 -2.26057,8.75868 z"
         id="path209"
         sodipodi:nodetypes="csssc" />
      <circle
         style="fill:#404040;fill-opacity:1;stroke-width:1.03555;stroke-miterlimit:1000;paint-order:markers stroke fill"
         id="path201"
         cx="-848.28162"
         cy="753.96533"
         r="5.7120709" />
      <circle
         style="fill:#404040;fill-opacity:1;stroke-width:1.03555;stroke-miterlimit:1000;paint-order:markers stroke fill"
         id="circle201"
         cx="-875.73022"
         cy="754.13013"
         r="5.7120709" />
      <path
         style="fill:#6d4c41;fill-opacity:1;stroke-width:1.03555;stroke-miterlimit:1000;paint-order:markers stroke fill"
         d="m -875.829,744.0924 c 4.12358,0 7.76204,2.57116 6.98584,4.5117 -0.77621,1.9405 -5.77302,0.097 -7.42246,0.097 -1.64943,0 -5.48194,2.23157 -6.69476,0.33959 -1.21282,-1.89201 3.00779,-5.09384 7.13138,-4.94831 z"
         id="path202" />
      <path
         id="path204"
         style="fill:#e59600;stroke-width:1.03555;stroke-miterlimit:1000;paint-order:markers stroke fill"
         d="m -857.83085,763.70073 c 0,2.35903 -2.48647,3.7735 -4.76372,3.7735 -2.23303,0 -4.76373,-1.41446 -4.76373,-3.7735 0,-1.81294 2.1328,-1.78187 4.76373,-1.78187 2.63093,0 4.76372,0.0499 4.76372,1.78187 z"
         sodipodi:nodetypes="sssss" />
      <path
         style="opacity:0.754658;mix-blend-mode:normal;fill:#733b0a;fill-opacity:1;stroke-width:1.03555;stroke-miterlimit:1000;paint-order:markers stroke fill;filter:url(#filter220)"
         d="m -889.38048,763.76739 27.7491,11.11384 26.30834,-10.83751 17.04654,1.99348 -5.53358,7.49324 -35.92153,20.48536 -43.72764,-25.63385 z"
         id="path220"
         sodipodi:nodetypes="cccccccc" />
      <ellipse
         style="fill:#94482d;fill-opacity:1;stroke-width:1.03555;stroke-miterlimit:1000;paint-order:markers stroke fill"
         id="circle204"
         cx="-862.48224"
         cy="776.25922"
         rx="6.6742063"
         ry="5.7120709" />
      <path
         id="path219"
         style="fill:#452f27;fill-opacity:1;stroke-width:1.03555;stroke-miterlimit:1000;paint-order:markers stroke fill"
         d="m -896.56477,773.34472 c 1.21522,9.13695 3.08356,19.93396 4.146,19.38951 3.52715,-1.80753 10.31994,0.0702 11.82511,-1.75183 4.53366,-5.48808 -0.49287,-12.32286 -4.78885,-17.63768 z m 57.41975,0 c -3.19856,6.68926 -8.11837,13.73301 -8.11837,13.73301 0,0 8.39197,29.77197 15.089,4.41265 1.5738,-5.95946 2.84015,-12.0815 3.79874,-18.14566 z" />
      <path
         style="fill:#ffce38;fill-opacity:1;stroke-width:1.03555;stroke-miterlimit:1000;paint-order:markers stroke fill"
         d="m -885.55339,767.05121 c -13.46353,-7.29382 -19.23739,-12.92219 -22.08411,-16.6571 -3.36818,-4.41906 -9.52402,-0.31609 -6.77031,4.7822 3.55269,6.57755 8.86535,20.11205 21.59998,23.81961 16.83191,4.90044 7.25444,-11.94471 7.25444,-11.94471 z"
         id="path207"
         sodipodi:nodetypes="csssc" />
      <path
         style="fill:url(#linearGradient214);fill-opacity:1;stroke-width:1.03555;stroke-miterlimit:1000;paint-order:markers stroke fill"
         d="m -816.89204,811.46265 c -1.29376,-12.12897 -10.43092,-18.03175 -15.28252,-19.97239 -4.85159,-1.94064 -49.56711,-23.6111 -52.23548,-24.74314 -2.66838,-1.13202 -3.80042,-0.64688 -4.68988,0.88947 -0.88945,1.53633 -4.68987,8.2477 -5.17503,9.13718 -0.48516,0.88945 -0.95945,2.3482 0.40653,3.25884 1.36599,0.91067 47.94059,31.50219 47.94059,31.50219 z"
         id="path206" />
      <path
         style="fill:#eda600;fill-opacity:1;stroke-width:1.03555;stroke-miterlimit:1000;paint-order:markers stroke fill"
         d="m -838.51335,782.02058 c 12.03215,-5.55059 17.7193,-8.69211 22.05354,-10.49978 5.12818,-2.13881 2.71854,-9.13326 -2.91104,-7.76095 -7.26301,1.77047 -11.60612,4.82433 -21.40307,9.50205 -15.81999,7.55351 2.26057,8.75868 2.26057,8.75868 z"
         id="path210"
         sodipodi:nodetypes="csssc" />
      <path
         style="fill:#ffce38;fill-opacity:1;stroke-width:1.03555;stroke-miterlimit:1000;paint-order:markers stroke fill"
         d="m -841.53598,767.28388 c 13.46353,-7.29382 19.23739,-12.92219 22.08411,-16.6571 3.36818,-4.41906 9.52402,-0.31609 6.77031,4.7822 -3.55269,6.57755 -6.41983,19.72066 -20.89887,23.7553 -16.88738,4.70573 -7.95555,-11.8804 -7.95555,-11.8804 z"
         id="path208"
         sodipodi:nodetypes="csssc" />
      <path
         style="fill:#5913f1;fill-opacity:1;stroke-width:1.03555;stroke-miterlimit:1000;paint-order:markers stroke fill"
         d="m -908.19823,811.46265 c 1.29376,-12.12897 10.43092,-18.03175 15.28252,-19.97239 4.85159,-1.94064 49.56711,-23.6111 52.23548,-24.74314 2.66838,-1.13202 3.80042,-0.64688 4.68988,0.88947 0.88945,1.53633 4.68987,8.2477 5.17503,9.13718 0.48516,0.88945 0.95945,2.3482 -0.40653,3.25884 -1.36599,0.91067 -47.94059,31.50219 -47.94059,31.50219 z"
         id="path205" />
      <path
         style="fill:#6d4c41;fill-opacity:1;stroke-width:1.03555;stroke-miterlimit:1000;paint-order:markers stroke fill"
         d="m -848.2361,743.95797 c -4.12358,0 -7.76204,2.57116 -6.98584,4.5117 0.77621,1.9405 5.77302,0.097 7.42246,0.097 1.64943,0 5.48194,2.23157 6.69476,0.33959 1.21282,-1.89201 -3.00779,-5.09384 -7.13138,-4.94831 z"
         id="path218" />
      <path
         style="font-weight:600;font-size:78.3965px;line-height:2.2;font-family:Sora;-inkscape-font-specification:'Sora Semi-Bold';text-align:center;letter-spacing:0px;text-anchor:middle;opacity:1;fill:#ffffff;stroke-width:1.03555;stroke-miterlimit:1000;paint-order:markers stroke fill"
         d="m -751.89352,795.04041 q -5.25256,0 -9.25078,-2.1951 -3.99822,-2.2735 -6.27172,-6.58531 -2.2735,-4.31181 -2.50869,-10.42673 h 1.64633 v 17.796 h -8.62362 v -57.22944 h 10.89711 v 28.61472 l -2.90067,4.4686 q 0.31359,-6.58531 2.58709,-10.97551 2.35189,-4.3902 6.27172,-6.58531 3.91982,-2.1951 8.8588,-2.1951 4.39021,0 7.99645,1.64633 3.60623,1.64633 6.19332,4.62539 2.58708,2.90067 3.91982,6.8205 1.41114,3.91982 1.41114,8.54522 v 1.64632 q 0,4.6254 -1.41114,8.62362 -1.41113,3.99822 -4.07661,7.05568 -2.66548,2.97907 -6.42852,4.70379 -3.68463,1.64633 -8.31003,1.64633 z m -2.43029,-9.17239 q 3.52785,0 6.11493,-1.72472 2.66548,-1.80312 4.15501,-4.86059 1.48954,-3.05746 1.48954,-7.05568 0,-4.07662 -1.48954,-7.05569 -1.48953,-2.97906 -4.15501,-4.62539 -2.58708,-1.64633 -6.11493,-1.64633 -3.21425,0 -5.95813,1.41114 -2.66548,1.41114 -4.39021,4.15501 -1.64632,2.74388 -1.64632,6.58531 v 3.13586 q 0,3.68464 1.72472,6.27172 1.72472,2.58709 4.4686,3.99822 2.74388,1.41114 5.80134,1.41114 z m 52.6824,9.25079 q -5.64454,0 -9.95635,-1.80312 -4.31181,-1.80312 -7.29088,-4.86059 -2.97906,-3.13586 -4.54699,-7.05568 -1.48954,-3.91983 -1.48954,-8.15324 v -1.64632 q 0,-4.39021 1.56793,-8.31003 1.64633,-3.99822 4.6254,-7.05569 3.05746,-3.13586 7.36927,-4.86058 4.31181,-1.80312 9.72116,-1.80312 5.40936,0 9.72117,1.80312 4.31181,1.72472 7.29087,4.86058 3.05747,3.05747 4.6254,7.05569 1.56793,3.91982 1.56793,8.31003 v 1.64632 q 0,4.23341 -1.56793,8.15324 -1.48954,3.91982 -4.4686,7.05568 -2.97907,3.05747 -7.29088,4.86059 -4.3118,1.80312 -9.87796,1.80312 z m 0,-9.32919 q 3.99823,0 6.7421,-1.72472 2.74388,-1.80312 4.15502,-4.78219 1.41113,-3.05746 1.41113,-6.89889 0,-3.91982 -1.48953,-6.89889 -1.41114,-3.05746 -4.23341,-4.78219 -2.74388,-1.80312 -6.58531,-1.80312 -3.84142,0 -6.6637,1.80312 -2.74388,1.72473 -4.23341,4.78219 -1.48953,2.97907 -1.48953,6.89889 0,3.84143 1.41113,6.89889 1.48954,2.97907 4.23341,4.78219 2.74388,1.72472 6.7421,1.72472 z m 34.80796,7.83965 v -42.5693 h 10.89712 v 42.5693 z m -5.95813,-34.41606 v -8.15324 h 16.85525 v 8.15324 z m 9.95635,-13.24901 q -3.21425,0 -4.78218,-1.64633 -1.48954,-1.72472 -1.48954,-4.23341 0,-2.66548 1.48954,-4.3118 1.56793,-1.64633 4.78218,-1.64633 3.21426,0 4.70379,1.64633 1.48954,1.64632 1.48954,4.3118 0,2.50869 -1.48954,4.23341 -1.48953,1.64633 -4.70379,1.64633 z m 49.23292,47.66507 -14.26816,-19.91271 h -6.35012 l 18.10959,-22.65659 h 11.36749 l -16.69845,20.93187 0.23519,-5.48776 19.91271,27.12519 z m -29.79067,0 v -57.22944 h 10.89711 v 57.22944 z m 67.42076,1.48954 q -5.64455,0 -9.95636,-1.80312 -4.3118,-1.80312 -7.29087,-4.86059 -2.97907,-3.13586 -4.547,-7.05568 -1.48953,-3.91983 -1.48953,-8.15324 v -1.64632 q 0,-4.39021 1.56793,-8.31003 1.64633,-3.99822 4.62539,-7.05569 3.05747,-3.13586 7.36927,-4.86058 4.31181,-1.80312 9.72117,-1.80312 5.40936,0 9.72117,1.80312 4.3118,1.72472 7.29087,4.86058 3.05746,3.05747 4.62539,7.05569 1.56793,3.91982 1.56793,8.31003 v 1.64632 q 0,4.23341 -1.56793,8.15324 -1.48953,3.91982 -4.4686,7.05568 -2.97906,3.05747 -7.29087,4.86059 -4.31181,1.80312 -9.87796,1.80312 z m 0,-9.32919 q 3.99822,0 6.7421,-1.72472 2.74388,-1.80312 4.15501,-4.78219 1.41114,-3.05746 1.41114,-6.89889 0,-3.91982 -1.48953,-6.89889 -1.41114,-3.05746 -4.23341,-4.78219 -2.74388,-1.80312 -6.58531,-1.80312 -3.84143,0 -6.6637,1.80312 -2.74388,1.72473 -4.23341,4.78219 -1.48954,2.97907 -1.48954,6.89889 0,3.84143 1.41114,6.89889 1.48953,2.97907 4.23341,4.78219 2.74388,1.72472 6.7421,1.72472 z m 51.27123,8.38843 q -5.87974,0 -9.72117,-1.48954 -3.76303,-1.56793 -5.64455,-5.17416 -1.88151,-3.68464 -1.88151,-9.87796 l 0.0784,-38.57108 h 10.19155 l -0.0784,39.27665 q 0,3.13586 1.64633,4.86058 1.72472,1.64632 4.86058,1.64632 h 6.6637 v 9.32919 z m -23.98933,-35.12163 v -7.99645 h 30.10425 v 7.99645 z m 37.55191,34.57285 v -12.54344 h 12.22985 v 12.54344 z m 17.95273,0 13.87618,-22.73498 -0.23519,1.80312 -13.09221,-21.63744 h 11.83787 l 8.54522,14.97373 h 1.17594 l 8.07484,-14.97373 h 11.13231 l -12.38665,21.55904 0.23519,-1.56793 14.66015,22.57819 h -11.83788 l -10.11314,-16.07128 h -1.17595 l -9.56437,16.07128 z m 49.62498,16.77685 v -9.32918 h 7.99644 q 2.2735,0 3.76303,-0.62717 1.56793,-0.54878 2.58709,-1.88152 1.01915,-1.25434 1.56793,-3.52784 l 11.44589,-43.98044 h 10.42673 l -12.62183,46.33233 q -1.25435,4.78219 -3.52785,7.60446 -2.2735,2.90068 -5.87973,4.15502 -3.52785,1.25434 -8.78041,1.25434 z m 13.24901,-17.71761 v -8.62361 h 9.09399 v 8.62361 z m -3.68464,0 -13.79778,-41.62854 h 10.97551 l 13.09221,41.62854 z m 32.61272,0.94076 v -8.62361 l 21.01026,-25.24368 v 1.25435 l -1.64632,-2.1951 1.33274,0.62717 h -20.77508 v -8.38843 h 32.45616 v 8.62362 l -21.01027,25.24367 v -1.17595 l 1.72473,2.19511 -1.33274,-0.70557 h 21.48064 v 8.38842 z"
         id="text1"
         aria-label="boikot.xyz" />
    </g>
    <path
       id="path21"
       style="font-weight:600;font-size:94.3557px;line-height:2.2;font-family:Sora;-inkscape-font-specification:'Sora Semi-Bold';text-align:center;letter-spacing:0px;text-anchor:middle;opacity:1;fill:#ffffff;stroke-width:0.394998;stroke-miterlimit:1000;paint-order:markers stroke fill"
       d="m -1279.406,195.14905 23.4946,-68.87966 h 21.8905 l 24.155,68.87966 h -13.7759 l -20.4752,-59.72716 4.8122,2.07583 h -11.7945 l 4.9065,-2.07583 -19.8147,59.72716 z m 16.4179,-18.30501 4.246,-11.32268 h 27.9293 l 4.1516,11.32268 z m 84.2594,20.09777 q -6.6993,0 -11.6058,-2.26454 -4.8121,-2.26454 -8.1145,-6.03876 -3.2081,-3.77423 -4.8122,-8.49202 -1.604,-4.71778 -1.604,-9.62428 v -1.79276 q 0,-5.18956 1.604,-9.90734 1.6984,-4.81215 5.0009,-8.49202 3.3024,-3.77423 8.1146,-5.94441 4.9065,-2.26453 11.3226,-2.26453 6.6993,0 11.9832,2.64196 5.2839,2.5476 8.3977,7.17103 3.2081,4.62343 3.5855,10.75655 h -12.738 q -0.4718,-3.96294 -3.3968,-6.6049 -2.8307,-2.64196 -7.8316,-2.64196 -4.3403,0 -7.2653,2.07583 -2.8307,2.07582 -4.2461,5.75569 -1.4153,3.58552 -1.4153,8.3033 0,4.52908 1.321,8.20895 1.4153,3.67987 4.246,5.7557 2.925,2.07582 7.4541,2.07582 3.3968,0 5.85,-1.22662 2.4533,-1.22662 3.8686,-3.39681 1.5097,-2.17018 1.8871,-4.90649 h 12.7381 q -0.3775,6.22747 -3.6799,10.94526 -3.2081,4.62343 -8.5864,7.26539 -5.2839,2.64196 -12.0775,2.64196 z m 57.5568,0 q -6.6992,0 -11.6057,-2.26454 -4.8122,-2.26454 -8.1146,-6.03876 -3.2081,-3.77423 -4.8122,-8.49202 -1.604,-4.71778 -1.604,-9.62428 v -1.79276 q 0,-5.18956 1.604,-9.90734 1.6984,-4.81215 5.0009,-8.49202 3.3024,-3.77423 8.1146,-5.94441 4.9065,-2.26453 11.3227,-2.26453 6.6992,0 11.9831,2.64196 5.284,2.5476 8.3977,7.17103 3.2081,4.62343 3.5855,10.75655 h -12.738 q -0.4718,-3.96294 -3.3968,-6.6049 -2.8307,-2.64196 -7.8315,-2.64196 -4.3404,0 -7.2654,2.07583 -2.8307,2.07582 -4.246,5.75569 -1.4154,3.58552 -1.4154,8.3033 0,4.52908 1.321,8.20895 1.4153,3.67987 4.246,5.7557 2.925,2.07582 7.4541,2.07582 3.3968,0 5.8501,-1.22662 2.4532,-1.22662 3.8686,-3.39681 1.5096,-2.17018 1.8871,-4.90649 h 12.738 q -0.3774,6.22747 -3.6799,10.94526 -3.2081,4.62343 -8.5864,7.26539 -5.2839,2.64196 -12.0775,2.64196 z m 59.444,0 q -6.7936,0 -11.9832,-2.17018 -5.1896,-2.17019 -8.7751,-5.85006 -3.5855,-3.77423 -5.4726,-8.49201 -1.7928,-4.71779 -1.7928,-9.81299 v -1.98147 q 0,-5.28392 1.8871,-10.00171 1.9815,-4.81214 5.567,-8.49201 3.6799,-3.77423 8.8695,-5.85005 5.1895,-2.17018 11.7001,-2.17018 6.5105,0 11.7001,2.17018 5.1895,2.07582 8.7751,5.85005 3.6798,3.67987 5.5669,8.49201 1.8872,4.71779 1.8872,10.00171 v 1.98147 q 0,5.0952 -1.8872,9.81299 -1.7927,4.71778 -5.3782,8.49201 -3.5856,3.67987 -8.7751,5.85006 -5.1896,2.17018 -11.8888,2.17018 z m 0,-11.22833 q 4.8121,0 8.1146,-2.07583 3.3024,-2.17018 5.0008,-5.75569 1.6984,-3.67988 1.6984,-8.30331 0,-4.71778 -1.7927,-8.3033 -1.6985,-3.67987 -5.0953,-5.75569 -3.3024,-2.17019 -7.9258,-2.17019 -4.6235,0 -8.0203,2.17019 -3.3024,2.07582 -5.0952,5.75569 -1.7927,3.58552 -1.7927,8.3033 0,4.62343 1.6984,8.30331 1.7927,3.58551 5.0952,5.75569 3.3024,2.07583 8.1146,2.07583 z m 56.8964,11.03962 q -8.8694,0 -13.7759,-5.85006 -4.8121,-5.85005 -4.8121,-17.36145 v -29.72204 h 13.1154 v 30.85431 q 0,4.71779 2.642,7.54846 2.6419,2.73631 7.171,2.73631 4.52913,0 7.35973,-2.92502 2.9251,-2.92503 2.9251,-7.92588 v -30.28818 h 13.1154 v 51.3295 h -10.3791 v -21.79617 h 1.0379 q 0,7.73717 -1.9815,12.92673 -1.9814,5.18957 -5.9444,7.83153 -3.9629,2.64196 -9.90733,2.64196 z m 42.83743,-1.60405 V 143.9139 h 10.3792 v 21.98488 h -0.9436 q 0,-7.83152 2.0758,-13.02108 2.0759,-5.28392 6.1332,-7.92588 4.1516,-2.64196 10.2847,-2.64196 h 0.5662 q 9.1525,0 13.8703,5.94441 4.7177,5.85005 4.7177,17.55016 v 29.34462 h -13.1154 v -30.47689 q 0,-4.71779 -2.7363,-7.64281 -2.642,-2.92503 -7.3598,-2.92503 -4.8121,0 -7.8315,3.01938 -2.925,2.92503 -2.925,7.92588 v 30.09947 z m 83.41045,0.66049 q -7.07667,0 -11.7001,-1.79276 -4.52908,-1.88711 -6.79361,-6.22748 -2.26454,-4.43471 -2.26454,-11.88881 l 0.0944,-46.42301 h 12.26624 l -0.0944,47.27221 q 0,3.77423 1.98147,5.85005 2.07583,1.98147 5.85005,1.98147 h 8.02024 v 11.22833 z m -28.87285,-42.27135 v -9.62429 h 36.2326 v 9.62429 z m 78.12645,41.61086 v -15.19127 h -2.17018 v -16.88967 q 0,-4.43472 -2.17018,-6.6049 -2.17018,-2.17018 -6.69926,-2.17018 -2.35889,0 -5.66134,0.0944 -3.30245,0.0944 -6.69925,0.28307 -3.30245,0.0944 -5.94441,0.28307 v -11.13398 q 2.17018,-0.18871 4.90649,-0.37742 2.73632,-0.18871 5.56699,-0.18871 2.92503,-0.0944 5.47263,-0.0944 7.92588,0 13.11544,2.07582 5.28392,2.07583 7.92588,6.51055 2.73632,4.43471 2.73632,11.60575 v 31.79787 z m -16.51225,1.32098 q -5.56698,0 -9.81299,-1.98147 -4.15165,-1.98147 -6.51054,-5.66134 -2.26454,-3.67988 -2.26454,-8.86944 0,-5.66134 2.73632,-9.24686 2.83067,-3.58551 7.83152,-5.37827 5.09521,-1.79276 11.88882,-1.79276 h 11.88881 v 7.83152 h -12.07753 q -4.52907,0 -6.98232,2.26454 -2.35889,2.17018 -2.35889,5.66134 0,3.49116 2.35889,5.66134 2.45325,2.17018 6.98232,2.17018 2.73632,0 5.00086,-0.94355 2.35889,-1.03792 3.86858,-3.39681 1.60405,-2.45325 1.79276,-6.6049 l 3.20809,3.67988 q -0.47178,5.37827 -2.64196,9.05814 -2.07582,3.67987 -5.85005,5.66134 -3.67987,1.88712 -9.05815,1.88712 z m 71.04977,0.37742 q -6.32183,0 -11.13397,-2.64196 -4.81214,-2.73631 -7.54846,-7.92588 -2.73631,-5.18956 -3.01938,-12.5493 h 1.98147 v 21.41874 h -10.37913 v -68.87966 h 13.11545 v 34.43983 l -3.49116,5.37827 q 0.37742,-7.92587 3.11373,-13.20979 2.83067,-5.28392 7.54846,-7.92588 4.71778,-2.64196 10.66219,-2.64196 5.28392,0 9.62428,1.98147 4.34037,1.98147 7.4541,5.56698 3.11374,3.49116 4.71779,8.20895 1.6984,4.71778 1.6984,10.28477 v 1.98147 q 0,5.56699 -1.6984,10.37913 -1.6984,4.81214 -4.9065,8.49201 -3.20809,3.58552 -7.73716,5.66134 -4.43472,1.98147 -10.00171,1.98147 z m -2.92502,-11.03962 q 4.246,0 7.35974,-2.07582 3.20809,-2.17018 5.00085,-5.85005 1.79276,-3.67988 1.79276,-8.49202 0,-4.90649 -1.79276,-8.49201 -1.79276,-3.58552 -5.00085,-5.56699 -3.11374,-1.98147 -7.35974,-1.98147 -3.86859,0 -7.17104,1.69841 -3.20809,1.6984 -5.28392,5.00085 -1.98147,3.30245 -1.98147,7.92588 v 3.77423 q 0,4.43471 2.07583,7.54845 2.07582,3.11374 5.37827,4.81214 3.30245,1.6984 6.98233,1.6984 z m 39.44063,9.34122 v -68.87966 h 13.11545 v 68.87966 z m -6.41618,-59.06667 v -9.81299 h 19.53163 v 9.81299 z m 57.46245,60.85943 q -6.6049,0 -11.60575,-2.26454 -4.9065,-2.26454 -8.20895,-6.03876 -3.20809,-3.86859 -4.90649,-8.58637 -1.60405,-4.71779 -1.60405,-9.62428 v -1.79276 q 0,-5.09521 1.60405,-9.81299 1.6984,-4.81215 4.90649,-8.49202 3.30245,-3.77423 8.11459,-5.94441 4.81214,-2.26453 11.13397,-2.26453 8.30331,0 13.87029,3.67987 5.66134,3.58552 8.49202,9.52992 2.83067,5.85006 2.83067,12.64367 v 4.71778 h -45.38509 v -8.02023 h 37.17614 l -4.05729,3.96294 q 0,-4.9065 -1.41534,-8.39766 -1.41534,-3.49116 -4.34036,-5.37827 -2.83067,-1.88712 -7.17104,-1.88712 -4.34036,0 -7.35974,1.98147 -3.01938,1.98147 -4.62343,5.7557 -1.50969,3.67987 -1.50969,8.86943 0,4.81215 1.50969,8.58637 1.50969,3.67988 4.62343,5.85006 3.11374,2.07582 7.92588,2.07582 4.81214,0 7.83152,-1.88711 3.01938,-1.98147 3.86859,-4.81214 h 12.07752 q -1.13226,5.28392 -4.34036,9.24686 -3.20809,3.96293 -8.20894,6.13312 -4.9065,2.17018 -11.22833,2.17018 z" />
    <path
       id="text2"
       style="font-weight:600;font-size:94.3557px;line-height:2.2;font-family:Sora;-inkscape-font-specification:'Sora Semi-Bold';text-align:center;letter-spacing:0px;text-anchor:middle;opacity:1;fill:#ffffff;stroke-width:0.394998;stroke-miterlimit:1000;paint-order:markers stroke fill"
       d="m -1331.4484,81.792107 -25.193,-32.175293 h -9.7187 l 29.9108,-36.704366 h 15.38 l -26.9857,33.024494 -0.3775,-6.604899 33.3076,42.460064 z m -44.6303,0 V 12.912448 h 13.3985 v 68.879659 z m 89.0716,1.792758 q -6.6049,0 -11.6058,-2.264536 -4.9064,-2.264537 -8.2089,-6.038765 -3.2081,-3.868584 -4.9065,-8.586368 -1.604,-4.717785 -1.604,-9.624282 v -1.792758 q 0,-5.095208 1.604,-9.812992 1.6984,-4.812141 4.9065,-8.492013 3.3025,-3.774228 8.1146,-5.944409 4.8121,-2.264537 11.134,-2.264537 8.3033,0 13.8703,3.679872 5.6613,3.585517 8.492,9.529926 2.8306,5.850053 2.8306,12.643663 v 4.717785 h -45.3851 v -8.020234 h 37.1762 l -4.0573,3.962939 q 0,-4.906496 -1.4153,-8.397657 -1.4154,-3.491161 -4.3404,-5.378275 -2.8307,-1.887114 -7.171,-1.887114 -4.3404,0 -7.3598,1.98147 -3.0194,1.98147 -4.6234,5.755698 -1.5097,3.679872 -1.5097,8.869435 0,4.812141 1.5097,8.586369 1.5097,3.679872 4.6234,5.850053 3.1138,2.075825 7.9259,2.075825 4.8121,0 7.8315,-1.887114 3.0194,-1.981469 3.8686,-4.81214 h 12.0775 q -1.1322,5.283919 -4.3403,9.246858 -3.2081,3.962939 -8.209,6.13312 -4.9065,2.170181 -11.2283,2.170181 z m 58.5004,0 q -6.6049,0 -11.6057,-2.264536 -4.9065,-2.264537 -8.209,-6.038765 -3.2081,-3.868584 -4.9065,-8.586368 -1.604,-4.717785 -1.604,-9.624282 v -1.792758 q 0,-5.095208 1.604,-9.812992 1.6984,-4.812141 4.9065,-8.492013 3.3025,-3.774228 8.1146,-5.944409 4.8122,-2.264537 11.134,-2.264537 8.3033,0 13.8703,3.679872 5.6613,3.585517 8.492,9.529926 2.8307,5.850053 2.8307,12.643663 v 4.717785 h -45.3851 v -8.020234 h 37.1761 l -4.0573,3.962939 q 0,-4.906496 -1.4153,-8.397657 -1.4153,-3.491161 -4.3404,-5.378275 -2.8306,-1.887114 -7.171,-1.887114 -4.3404,0 -7.3597,1.98147 -3.0194,1.98147 -4.6235,5.755698 -1.5097,3.679872 -1.5097,8.869435 0,4.812141 1.5097,8.586369 1.5097,3.679872 4.6235,5.850053 3.1137,2.075825 7.9258,2.075825 4.8122,0 7.8316,-1.887114 3.0193,-1.981469 3.8685,-4.81214 h 12.0776 q -1.1323,5.283919 -4.3404,9.246858 -3.2081,3.962939 -8.2089,6.13312 -4.9065,2.170181 -11.2284,2.170181 z m 35.572,17.078385 V 30.556963 h 10.3792 v 22.079234 l -1.6041,-0.09436 q 0.3774,-7.831523 3.2081,-13.115442 2.925,-5.283919 7.7372,-7.831523 4.8121,-2.64196 10.7565,-2.64196 5.4726,0 9.813,1.98147 4.4347,1.98147 7.5485,5.566986 3.2081,3.585517 4.9065,8.397657 1.6984,4.717785 1.6984,10.190416 v 1.981469 q 0,5.566987 -1.6984,10.379127 -1.6041,4.717785 -4.8122,8.397657 -3.1137,3.585517 -7.5484,5.661342 -4.4348,1.98147 -9.9074,1.98147 -5.7557,0 -10.5678,-2.358893 -4.7178,-2.453248 -7.6428,-7.4541 -2.9251,-5.095208 -3.3025,-13.115442 l 4.1517,6.321832 v 33.779347 z m 27.1745,-28.212357 q 4.246,0 7.3597,-2.075825 3.2081,-2.075826 5.0009,-5.755698 1.7927,-3.774228 1.7927,-8.492013 0,-4.906496 -1.7927,-8.492012 -1.7928,-3.585517 -5.0009,-5.566987 -3.1137,-2.075825 -7.3597,-2.075825 -3.8686,0 -7.1711,1.698403 -3.2081,1.698402 -5.2839,5.000852 -1.9815,3.302449 -1.9815,7.925878 v 3.774228 q 0,4.434718 2.0759,7.548456 2.0758,3.113738 5.3782,4.812141 3.3025,1.698402 6.9824,1.698402 z m 91.2418,11.133972 q -9.3412,0 -16.0404,-3.302449 -6.6993,-3.302449 -10.9453,-8.586368 -4.1516,-5.28392 -6.1331,-11.511396 -1.9815,-6.227476 -1.9815,-11.983173 v -2.075826 q 0,-6.416187 1.9815,-12.643663 2.0758,-6.227476 6.3218,-11.322684 4.246,-5.095207 10.7566,-8.11459 6.6049,-3.113738 15.5687,-3.113738 9.3412,0 16.2291,3.396805 6.9824,3.30245 11.134,9.43557 4.1517,6.038765 5.0009,14.153355 h -13.4929 q -0.7548,-4.717785 -3.3968,-7.925879 -2.5476,-3.302449 -6.5106,-4.906496 -3.9629,-1.698403 -8.9637,-1.698403 -5.0953,0 -9.0582,1.792759 -3.9629,1.698402 -6.6049,4.906496 -2.6419,3.208094 -4.0573,7.548456 -1.321,4.340362 -1.321,9.624281 0,5.095207 1.321,9.43557 1.4154,4.340362 4.1517,7.642811 2.7363,3.208094 6.6992,5.000852 4.0573,1.792758 9.3412,1.792758 7.7372,0 13.0211,-3.774228 5.3783,-3.868583 6.5106,-10.756549 h 13.4928 q -0.9435,7.359744 -5.0008,13.492865 -4.0573,6.13312 -11.134,9.812992 -7.0767,3.679872 -16.8897,3.679872 z m 67.9361,0 q -6.7936,0 -11.9832,-2.170181 -5.1895,-2.170181 -8.7751,-5.850053 -3.5855,-3.774228 -5.4726,-8.492013 -1.7927,-4.717785 -1.7927,-9.812992 v -1.98147 q 0,-5.283919 1.8871,-10.001704 1.9814,-4.81214 5.567,-8.492013 3.6798,-3.774228 8.8694,-5.850053 5.1896,-2.170181 11.7001,-2.170181 6.5105,0 11.70011,2.170181 5.18957,2.075825 8.77508,5.850053 3.67988,3.679873 5.56699,8.492013 1.88711,4.717785 1.88711,10.001704 v 1.98147 q 0,5.095207 -1.88711,9.812992 -1.79276,4.717785 -5.37827,8.492013 -3.58552,3.679872 -8.77508,5.850053 -5.18957,2.170181 -11.88883,2.170181 z m 0,-11.228328 q 4.8121,0 8.1146,-2.075825 3.30245,-2.170181 5.00085,-5.755698 1.6984,-3.679872 1.6984,-8.303301 0,-4.717785 -1.79276,-8.303301 -1.6984,-3.679873 -5.0952,-5.755698 -3.30249,-2.170181 -7.92589,-2.170181 -4.6234,0 -8.0202,2.170181 -3.3025,2.075825 -5.0952,5.755698 -1.7928,3.585516 -1.7928,8.303301 0,4.623429 1.6984,8.303301 1.7928,3.585517 5.0952,5.755698 3.3025,2.075825 8.1146,2.075825 z m 39.44061,9.43557 V 30.556963 h 10.37913 v 21.984878 h -0.94356 q 0,-7.737167 1.98147,-12.926731 1.98147,-5.283919 5.85006,-7.925878 3.96294,-2.736316 9.81299,-2.736316 h 0.56613 q 5.94441,0 9.813,2.736316 3.96294,2.641959 5.85005,7.925878 1.98147,5.189564 1.98147,12.926731 h -3.30245 q 0,-7.737167 1.98147,-12.926731 2.07582,-5.283919 5.94441,-7.925878 3.96294,-2.736316 9.81299,-2.736316 h 0.56613 q 5.94441,0 9.90735,2.736316 3.96294,2.641959 5.94441,7.925878 2.07583,5.189564 2.07583,12.926731 v 29.250266 h -13.11544 v -30.47689 q 0,-4.812141 -2.45325,-7.642812 -2.45325,-2.925026 -6.98232,-2.925026 -4.52908,0 -7.26539,3.019382 -2.73632,2.925027 -2.73632,7.925879 v 30.099467 h -13.11544 v -30.47689 q 0,-4.812141 -2.45325,-7.642812 -2.45325,-2.925026 -6.98232,-2.925026 -4.52907,0 -7.26539,3.019382 -2.73631,2.925027 -2.73631,7.925879 v 30.099467 z m 92.27976,18.871143 V 30.556963 h 10.37913 v 22.079234 l -1.60405,-0.09436 q 0.37742,-7.831523 3.20809,-13.115442 2.92503,-5.283919 7.73717,-7.831523 4.81214,-2.64196 10.75655,-2.64196 5.47263,0 9.81299,1.98147 4.43472,1.98147 7.54846,5.566986 3.20809,3.585517 4.90649,8.397657 1.69841,4.717785 1.69841,10.190416 v 1.981469 q 0,5.566987 -1.69841,10.379127 -1.60404,4.717785 -4.81214,8.397657 -3.11373,3.585517 -7.54845,5.661342 -4.43472,1.98147 -9.90735,1.98147 -5.7557,0 -10.56784,-2.358893 -4.71778,-2.453248 -7.64281,-7.4541 -2.92503,-5.095208 -3.30245,-13.115442 l 4.15165,6.321832 v 33.779347 z m 27.17444,-28.212357 q 4.24601,0 7.35974,-2.075825 3.2081,-2.075826 5.00086,-5.755698 1.79275,-3.774228 1.79275,-8.492013 0,-4.906496 -1.79275,-8.492012 -1.79276,-3.585517 -5.00086,-5.566987 -3.11373,-2.075825 -7.35974,-2.075825 -3.86858,0 -7.17103,1.698403 -3.2081,1.698402 -5.28392,5.000852 -1.98147,3.302449 -1.98147,7.925878 v 3.774228 q 0,4.434718 2.07582,7.548456 2.07583,3.113738 5.37828,4.812141 3.30245,1.698402 6.98232,1.698402 z m 69.82314,9.341214 V 66.60084 h -2.17018 V 49.71117 q 0,-4.434718 -2.17018,-6.604899 -2.17018,-2.170181 -6.69925,-2.170181 -2.3589,0 -5.66135,0.09436 -3.30245,0.09436 -6.69925,0.283067 -3.30245,0.09436 -5.94441,0.283067 V 30.462612 q 2.17018,-0.188712 4.9065,-0.377423 2.73631,-0.188712 5.56698,-0.188712 2.92503,-0.09435 5.47263,-0.09435 7.92588,0 13.11545,2.075825 5.28391,2.075825 7.92587,6.510543 2.73632,4.434718 2.73632,11.605751 v 31.79787 z m -16.51224,1.32098 q -5.56699,0 -9.813,-1.98147 -4.15165,-1.981469 -6.51054,-5.661342 -2.26454,-3.679872 -2.26454,-8.869435 0,-5.661342 2.73632,-9.246859 2.83067,-3.585516 7.83152,-5.378274 5.09521,-1.792759 11.88882,-1.792759 h 11.88882 v 7.831523 h -12.07753 q -4.52908,0 -6.98232,2.264537 -2.3589,2.170181 -2.3589,5.661342 0,3.491161 2.3589,5.661342 2.45324,2.170181 6.98232,2.170181 2.73631,0 5.00085,-0.943557 2.35889,-1.037913 3.86858,-3.396805 1.60405,-2.453248 1.79276,-6.604899 l 3.2081,3.679872 q -0.47178,5.378275 -2.64196,9.058147 -2.07583,3.679872 -5.85006,5.661342 -3.67987,1.887114 -9.05814,1.887114 z m 40.9503,-1.32098 V 30.556963 h 10.37912 v 21.984878 h -0.94355 q 0,-7.831523 2.07582,-13.021086 2.07583,-5.283919 6.13312,-7.925879 4.15165,-2.64196 10.28477,-2.64196 h 0.56614 q 9.1525,0 13.87029,5.944409 4.71778,5.850054 4.71778,17.55016 v 29.344622 h -13.11544 v -30.47689 q 0,-4.717785 -2.73632,-7.642812 -2.64196,-2.925026 -7.35974,-2.925026 -4.81214,0 -7.83152,3.019382 -2.92503,2.925027 -2.92503,7.925879 v 30.099467 z m 63.59564,0 V 30.556963 h 13.11544 v 51.235144 z m -7.17103,-41.422151 v -9.812993 h 20.28647 v 9.812993 z m 11.98317,-15.946113 q -3.86858,0 -5.7557,-1.98147 -1.79275,-2.075825 -1.79275,-5.095207 0,-3.208094 1.79275,-5.189564 1.88712,-1.981469 5.7557,-1.981469 3.86858,0 5.66134,1.981469 1.79276,1.98147 1.79276,5.189564 0,3.019382 -1.79276,5.095207 -1.79276,1.98147 -5.66134,1.98147 z M -638.69,83.584865 q -6.6049,0 -11.60575,-2.264536 -4.90649,-2.264537 -8.20894,-6.038765 -3.2081,-3.868584 -4.9065,-8.586368 -1.60405,-4.717785 -1.60405,-9.624282 v -1.792758 q 0,-5.095208 1.60405,-9.812992 1.6984,-4.812141 4.9065,-8.492013 3.30245,-3.774228 8.11459,-5.944409 4.81214,-2.264537 11.13397,-2.264537 8.3033,0 13.87029,3.679872 5.66134,3.585517 8.49201,9.529926 2.83067,5.850053 2.83067,12.643663 v 4.717785 h -45.38509 v -8.020234 h 37.17614 l -4.05729,3.962939 q 0,-4.906496 -1.41534,-8.397657 -1.41533,-3.491161 -4.34036,-5.378275 -2.83067,-1.887114 -7.17103,-1.887114 -4.34036,0 -7.35975,1.98147 -3.01938,1.98147 -4.62342,5.755698 -1.5097,3.679872 -1.5097,8.869435 0,4.812141 1.5097,8.586369 1.50969,3.679872 4.62342,5.850053 3.11374,2.075825 7.92588,2.075825 4.81214,0 7.83153,-1.887114 3.01938,-1.981469 3.86858,-4.81214 h 12.07753 q -1.13227,5.283919 -4.34036,9.246858 -3.2081,3.962939 -8.20895,6.13312 -4.9065,2.170181 -11.22833,2.170181 z m 54.16007,-0.188711 q -10.56784,0 -16.6066,-4.434718 -5.94441,-4.529073 -6.22748,-12.454952 h 11.79446 q 0.28307,2.64196 2.92503,4.812141 2.64196,2.170181 8.3033,2.170181 4.71778,0 7.4541,-1.698403 2.83067,-1.698402 2.83067,-4.623429 0,-2.547604 -2.17018,-4.057295 -2.07583,-1.509691 -7.17103,-1.98147 l -4.52908,-0.471778 q -8.58637,-0.943557 -13.20979,-4.906496 -4.62343,-3.96294 -4.62343,-10.567839 0,-5.283919 2.64196,-8.869435 2.64196,-3.585517 7.26538,-5.378275 4.71779,-1.887114 10.75655,-1.887114 9.43557,0 15.28563,4.151651 5.85005,4.151651 6.13312,12.171885 h -11.79446 q -0.18872,-2.64196 -2.64196,-4.529074 -2.45325,-1.887114 -7.07668,-1.887114 -4.15165,0 -6.41619,1.604047 -2.26454,1.604047 -2.26454,4.151651 0,2.453248 1.79276,3.774228 1.88712,1.32098 6.03877,1.792758 l 4.52907,0.471779 q 9.05815,0.943557 14.15336,5.000852 5.18956,4.057295 5.18956,10.945261 0,5.095207 -2.83067,8.869435 -2.73632,3.679872 -7.73717,5.755698 -5.00085,2.075825 -11.79446,2.075825 z" />
  </g>
</svg>
