<?xml version="1.0" encoding="UTF-8" standalone="no"?>
<!-- Created with Inkscape (http://www.inkscape.org/) -->

<svg
   width="546.95416mm"
   height="105.01256mm"
   viewBox="0 0 546.95416 105.01256"
   version="1.1"
   id="svg1"
   inkscape:version="1.3 (0e150ed, 2023-07-21)"
   sodipodi:docname="logo.svg"
   xmlns:inkscape="http://www.inkscape.org/namespaces/inkscape"
   xmlns:sodipodi="http://sodipodi.sourceforge.net/DTD/sodipodi-0.dtd"
   xmlns:xlink="http://www.w3.org/1999/xlink"
   xmlns="http://www.w3.org/2000/svg"
   xmlns:svg="http://www.w3.org/2000/svg">
  <sodipodi:namedview
     id="namedview1"
     pagecolor="#000000"
     bordercolor="#000000"
     borderopacity="0.25"
     inkscape:showpageshadow="2"
     inkscape:pageopacity="0.0"
     inkscape:pagecheckerboard="0"
     inkscape:deskcolor="#d1d1d1"
     inkscape:document-units="mm"
     inkscape:zoom="0.16168992"
     inkscape:cx="318.51089"
     inkscape:cy="-49.477419"
     inkscape:window-width="1728"
     inkscape:window-height="1051"
     inkscape:window-x="0"
     inkscape:window-y="38"
     inkscape:window-maximized="1"
     inkscape:current-layer="g2" />
  <defs
     id="defs1">
    <radialGradient
       inkscape:collect="always"
       xlink:href="#linearGradient211"
       id="radialGradient212"
       cx="-192.49786"
       cy="586.91144"
       fx="-192.49786"
       fy="586.91144"
       r="35.844769"
       gradientTransform="matrix(1.2592518,0,0,1.3279271,-619.80394,-26.221597)"
       gradientUnits="userSpaceOnUse" />
    <linearGradient
       id="linearGradient211"
       inkscape:collect="always">
      <stop
         style="stop-color:#543930;stop-opacity:1;"
         offset="0.72568941"
         id="stop211" />
      <stop
         style="stop-color:#90665a;stop-opacity:1;"
         offset="1"
         id="stop212" />
    </linearGradient>
    <filter
       inkscape:collect="always"
       style="color-interpolation-filters:sRGB"
       id="filter220"
       x="-0.073023987"
       y="-0.20564334"
       width="1.146048"
       height="1.4112867">
      <feGaussianBlur
         inkscape:collect="always"
         stdDeviation="2.5918267"
         id="feGaussianBlur220" />
    </filter>
    <linearGradient
       inkscape:collect="always"
       xlink:href="#linearGradient212"
       id="linearGradient214"
       x1="-214.42772"
       y1="588.65918"
       x2="-163.76767"
       y2="672.32977"
       gradientUnits="userSpaceOnUse"
       gradientTransform="translate(-669.70937,166.4815)" />
    <linearGradient
       id="linearGradient212"
       inkscape:collect="always">
      <stop
         style="stop-color:#4c0ada;stop-opacity:1;"
         offset="0"
         id="stop213" />
      <stop
         style="stop-color:#4b09d7;stop-opacity:1;"
         offset="0.23520152"
         id="stop216" />
      <stop
         style="stop-color:#000000;stop-opacity:1;"
         offset="0.39538255"
         id="stop215" />
      <stop
         style="stop-color:#4a09d6;stop-opacity:1;"
         offset="0.59528929"
         id="stop217" />
      <stop
         style="stop-color:#4c0ada;stop-opacity:1;"
         offset="1"
         id="stop214" />
    </linearGradient>
  </defs>
  <g
     inkscape:label="Layer 1"
     inkscape:groupmode="layer"
     id="layer1"
     transform="translate(169.06874,-69.585415)">
    <g
       id="g2"
       transform="translate(746.0289,-636.93683)">
      <rect
         style="fill:#ffca28;fill-opacity:1;stroke-width:0.394999;stroke-miterlimit:1000;paint-order:markers stroke fill"
         id="rect211"
         width="59.521526"
         height="51.011333"
         x="-893.32043"
         y="727.77136" />
      <rect
         style="fill:#221362;fill-opacity:1;stroke-width:0.394999;stroke-miterlimit:1000;paint-order:markers stroke fill"
         id="rect210"
         width="43.100063"
         height="14.419102"
         x="-882.15521"
         y="797.10828" />
      <path
         style="fill:url(#radialGradient212);fill-opacity:1;stroke-width:0.394999;stroke-miterlimit:1000;paint-order:markers stroke fill"
         d="m -862.48201,706.52365 c 8.47098,0 22.09721,2.62146 30.24629,14.84763 8.4196,12.63203 7.20052,43.08469 0.0612,70.11896 -6.69704,25.35935 -15.08872,-4.41269 -15.08872,-4.41269 0,0 10.99601,-15.71749 10.79826,-22.49054 -0.19775,-6.77307 -0.20485,-17.02723 -2.23814,-19.53238 -2.10102,-2.5886 -11.35742,-7.36209 -15.36192,-14.62953 -7.7393,7.61283 -20.87714,12.33717 -29.499,14.11812 -3.46501,0.71573 -5.75057,13.12243 -6.54158,21.52694 -0.37248,3.95765 16.74757,16.15356 9.51203,24.91232 -1.50518,1.82204 -8.2981,-0.0556 -11.82526,1.75193 -1.63969,0.84026 -5.22779,-25.42264 -5.31186,-30.71931 -0.195,-12.28508 -1.87985,-29.42835 4.99764,-39.62897 6.39309,-9.48216 16.42454,-15.97361 30.2511,-15.86248 z"
         id="path211"
         sodipodi:nodetypes="csscsscsssssscc" />
      <path
         style="fill:#eda600;fill-opacity:1;stroke-width:0.394999;stroke-miterlimit:1000;paint-order:markers stroke fill"
         d="m -886.74892,782.21955 c -12.03215,-5.55059 -17.7193,-8.69211 -22.05354,-10.49978 -5.12818,-2.13881 -2.71854,-9.13326 2.91104,-7.76095 7.26301,1.77047 11.60612,4.82433 21.40307,9.50205 15.81999,7.55351 -2.26057,8.75868 -2.26057,8.75868 z"
         id="path209"
         sodipodi:nodetypes="csssc" />
      <circle
         style="fill:#404040;fill-opacity:1;stroke-width:0.394999;stroke-miterlimit:1000;paint-order:markers stroke fill"
         id="path201"
         cx="-848.28162"
         cy="753.96533"
         r="5.7120709" />
      <circle
         style="fill:#404040;fill-opacity:1;stroke-width:0.394999;stroke-miterlimit:1000;paint-order:markers stroke fill"
         id="circle201"
         cx="-875.73022"
         cy="754.13013"
         r="5.7120709" />
      <path
         style="fill:#6d4c41;fill-opacity:1;stroke-width:0.394999;stroke-miterlimit:1000;paint-order:markers stroke fill"
         d="m -875.829,744.0924 c 4.12358,0 7.76204,2.57116 6.98584,4.5117 -0.77621,1.9405 -5.77302,0.097 -7.42246,0.097 -1.64943,0 -5.48194,2.23157 -6.69476,0.33959 -1.21282,-1.89201 3.00779,-5.09384 7.13138,-4.94831 z"
         id="path202" />
      <path
         id="path204"
         style="fill:#e59600;stroke-width:0.394999;stroke-miterlimit:1000;paint-order:markers stroke fill"
         d="m -857.83085,763.70073 c 0,2.35903 -2.48647,3.7735 -4.76372,3.7735 -2.23303,0 -4.76373,-1.41446 -4.76373,-3.7735 0,-1.81294 2.1328,-1.78187 4.76373,-1.78187 2.63093,0 4.76372,0.0499 4.76372,1.78187 z"
         sodipodi:nodetypes="sssss" />
      <path
         style="opacity:0.754658;mix-blend-mode:normal;fill:#733b0a;fill-opacity:1;stroke-width:0.394999;stroke-miterlimit:1000;paint-order:markers stroke fill;filter:url(#filter220)"
         d="m -889.38048,763.76739 27.7491,11.11384 26.30834,-10.83751 17.04654,1.99348 -5.53358,7.49324 -35.92153,20.48536 -43.72764,-25.63385 z"
         id="path220"
         sodipodi:nodetypes="cccccccc" />
      <ellipse
         style="fill:#94482d;fill-opacity:1;stroke-width:0.394999;stroke-miterlimit:1000;paint-order:markers stroke fill"
         id="circle204"
         cx="-862.48224"
         cy="776.25922"
         rx="6.6742063"
         ry="5.7120709" />
      <path
         id="path219"
         style="fill:#452f27;fill-opacity:1;stroke-width:0.394999;stroke-miterlimit:1000;paint-order:markers stroke fill"
         d="m -896.56477,773.34472 c 1.21522,9.13695 3.08356,19.93396 4.146,19.38951 3.52715,-1.80753 10.31994,0.0702 11.82511,-1.75183 4.53366,-5.48808 -0.49287,-12.32286 -4.78885,-17.63768 z m 57.41975,0 c -3.19856,6.68926 -8.11837,13.73301 -8.11837,13.73301 0,0 8.39197,29.77197 15.089,4.41265 1.5738,-5.95946 2.84015,-12.0815 3.79874,-18.14566 z" />
      <path
         style="fill:#ffce38;fill-opacity:1;stroke-width:0.394999;stroke-miterlimit:1000;paint-order:markers stroke fill"
         d="m -885.55339,767.05121 c -13.46353,-7.29382 -19.23739,-12.92219 -22.08411,-16.6571 -3.36818,-4.41906 -9.52402,-0.31609 -6.77031,4.7822 3.55269,6.57755 8.86535,20.11205 21.59998,23.81961 16.83191,4.90044 7.25444,-11.94471 7.25444,-11.94471 z"
         id="path207"
         sodipodi:nodetypes="csssc" />
      <path
         style="fill:url(#linearGradient214);fill-opacity:1;stroke-width:0.394999;stroke-miterlimit:1000;paint-order:markers stroke fill"
         d="m -816.89204,811.46265 c -1.29376,-12.12897 -10.43092,-18.03175 -15.28252,-19.97239 -4.85159,-1.94064 -49.56711,-23.6111 -52.23548,-24.74314 -2.66838,-1.13202 -3.80042,-0.64688 -4.68988,0.88947 -0.88945,1.53633 -4.68987,8.2477 -5.17503,9.13718 -0.48516,0.88945 -0.95945,2.3482 0.40653,3.25884 1.36599,0.91067 47.94059,31.50219 47.94059,31.50219 z"
         id="path206" />
      <path
         style="fill:#eda600;fill-opacity:1;stroke-width:0.394999;stroke-miterlimit:1000;paint-order:markers stroke fill"
         d="m -838.51335,782.02058 c 12.03215,-5.55059 17.7193,-8.69211 22.05354,-10.49978 5.12818,-2.13881 2.71854,-9.13326 -2.91104,-7.76095 -7.26301,1.77047 -11.60612,4.82433 -21.40307,9.50205 -15.81999,7.55351 2.26057,8.75868 2.26057,8.75868 z"
         id="path210"
         sodipodi:nodetypes="csssc" />
      <path
         style="fill:#ffce38;fill-opacity:1;stroke-width:0.394999;stroke-miterlimit:1000;paint-order:markers stroke fill"
         d="m -841.53598,767.28388 c 13.46353,-7.29382 19.23739,-12.92219 22.08411,-16.6571 3.36818,-4.41906 9.52402,-0.31609 6.77031,4.7822 -3.55269,6.57755 -6.41983,19.72066 -20.89887,23.7553 -16.88738,4.70573 -7.95555,-11.8804 -7.95555,-11.8804 z"
         id="path208"
         sodipodi:nodetypes="csssc" />
      <path
         style="fill:#5913f1;fill-opacity:1;stroke-width:0.394999;stroke-miterlimit:1000;paint-order:markers stroke fill"
         d="m -908.19823,811.46265 c 1.29376,-12.12897 10.43092,-18.03175 15.28252,-19.97239 4.85159,-1.94064 49.56711,-23.6111 52.23548,-24.74314 2.66838,-1.13202 3.80042,-0.64688 4.68988,0.88947 0.88945,1.53633 4.68987,8.2477 5.17503,9.13718 0.48516,0.88945 0.95945,2.3482 -0.40653,3.25884 -1.36599,0.91067 -47.94059,31.50219 -47.94059,31.50219 z"
         id="path205" />
      <path
         style="fill:#6d4c41;fill-opacity:1;stroke-width:0.394999;stroke-miterlimit:1000;paint-order:markers stroke fill"
         d="m -848.2361,743.95797 c -4.12358,0 -7.76204,2.57116 -6.98584,4.5117 0.77621,1.9405 5.77302,0.097 7.42246,0.097 1.64943,0 5.48194,2.23157 6.69476,0.33959 1.21282,-1.89201 -3.00779,-5.09384 -7.13138,-4.94831 z"
         id="path218" />
      <path
         style="font-weight:600;font-size:78.3965px;line-height:2.2;font-family:Sora;-inkscape-font-specification:'Sora Semi-Bold';text-align:center;letter-spacing:0px;text-anchor:middle;opacity:1;fill:#ffffff;stroke-width:0.395;stroke-miterlimit:1000;paint-order:markers stroke fill"
         d="m -751.89352,795.04041 q -5.25256,0 -9.25078,-2.1951 -3.99822,-2.2735 -6.27172,-6.58531 -2.2735,-4.31181 -2.50869,-10.42673 h 1.64633 v 17.796 h -8.62362 v -57.22944 h 10.89711 v 28.61472 l -2.90067,4.4686 q 0.31359,-6.58531 2.58709,-10.97551 2.35189,-4.3902 6.27172,-6.58531 3.91982,-2.1951 8.8588,-2.1951 4.39021,0 7.99645,1.64633 3.60623,1.64633 6.19332,4.62539 2.58708,2.90067 3.91982,6.8205 1.41114,3.91982 1.41114,8.54522 v 1.64632 q 0,4.6254 -1.41114,8.62362 -1.41113,3.99822 -4.07661,7.05568 -2.66548,2.97907 -6.42852,4.70379 -3.68463,1.64633 -8.31003,1.64633 z m -2.43029,-9.17239 q 3.52785,0 6.11493,-1.72472 2.66548,-1.80312 4.15501,-4.86059 1.48954,-3.05746 1.48954,-7.05568 0,-4.07662 -1.48954,-7.05569 -1.48953,-2.97906 -4.15501,-4.62539 -2.58708,-1.64633 -6.11493,-1.64633 -3.21425,0 -5.95813,1.41114 -2.66548,1.41114 -4.39021,4.15501 -1.64632,2.74388 -1.64632,6.58531 v 3.13586 q 0,3.68464 1.72472,6.27172 1.72472,2.58709 4.4686,3.99822 2.74388,1.41114 5.80134,1.41114 z m 52.6824,9.25079 q -5.64454,0 -9.95635,-1.80312 -4.31181,-1.80312 -7.29088,-4.86059 -2.97906,-3.13586 -4.54699,-7.05568 -1.48954,-3.91983 -1.48954,-8.15324 v -1.64632 q 0,-4.39021 1.56793,-8.31003 1.64633,-3.99822 4.6254,-7.05569 3.05746,-3.13586 7.36927,-4.86058 4.31181,-1.80312 9.72116,-1.80312 5.40936,0 9.72117,1.80312 4.31181,1.72472 7.29087,4.86058 3.05747,3.05747 4.6254,7.05569 1.56793,3.91982 1.56793,8.31003 v 1.64632 q 0,4.23341 -1.56793,8.15324 -1.48954,3.91982 -4.4686,7.05568 -2.97907,3.05747 -7.29088,4.86059 -4.3118,1.80312 -9.87796,1.80312 z m 0,-9.32919 q 3.99823,0 6.7421,-1.72472 2.74388,-1.80312 4.15502,-4.78219 1.41113,-3.05746 1.41113,-6.89889 0,-3.91982 -1.48953,-6.89889 -1.41114,-3.05746 -4.23341,-4.78219 -2.74388,-1.80312 -6.58531,-1.80312 -3.84142,0 -6.6637,1.80312 -2.74388,1.72473 -4.23341,4.78219 -1.48953,2.97907 -1.48953,6.89889 0,3.84143 1.41113,6.89889 1.48954,2.97907 4.23341,4.78219 2.74388,1.72472 6.7421,1.72472 z m 34.80796,7.83965 v -42.5693 h 10.89712 v 42.5693 z m -5.95813,-34.41606 v -8.15324 h 16.85525 v 8.15324 z m 9.95635,-13.24901 q -3.21425,0 -4.78218,-1.64633 -1.48954,-1.72472 -1.48954,-4.23341 0,-2.66548 1.48954,-4.3118 1.56793,-1.64633 4.78218,-1.64633 3.21426,0 4.70379,1.64633 1.48954,1.64632 1.48954,4.3118 0,2.50869 -1.48954,4.23341 -1.48953,1.64633 -4.70379,1.64633 z m 49.23292,47.66507 -14.26816,-19.91271 h -6.35012 l 18.10959,-22.65659 h 11.36749 l -16.69845,20.93187 0.23519,-5.48776 19.91271,27.12519 z m -29.79067,0 v -57.22944 h 10.89711 v 57.22944 z m 67.42076,1.48954 q -5.64455,0 -9.95636,-1.80312 -4.3118,-1.80312 -7.29087,-4.86059 -2.97907,-3.13586 -4.547,-7.05568 -1.48953,-3.91983 -1.48953,-8.15324 v -1.64632 q 0,-4.39021 1.56793,-8.31003 1.64633,-3.99822 4.62539,-7.05569 3.05747,-3.13586 7.36927,-4.86058 4.31181,-1.80312 9.72117,-1.80312 5.40936,0 9.72117,1.80312 4.3118,1.72472 7.29087,4.86058 3.05746,3.05747 4.62539,7.05569 1.56793,3.91982 1.56793,8.31003 v 1.64632 q 0,4.23341 -1.56793,8.15324 -1.48953,3.91982 -4.4686,7.05568 -2.97906,3.05747 -7.29087,4.86059 -4.31181,1.80312 -9.87796,1.80312 z m 0,-9.32919 q 3.99822,0 6.7421,-1.72472 2.74388,-1.80312 4.15501,-4.78219 1.41114,-3.05746 1.41114,-6.89889 0,-3.91982 -1.48953,-6.89889 -1.41114,-3.05746 -4.23341,-4.78219 -2.74388,-1.80312 -6.58531,-1.80312 -3.84143,0 -6.6637,1.80312 -2.74388,1.72473 -4.23341,4.78219 -1.48954,2.97907 -1.48954,6.89889 0,3.84143 1.41114,6.89889 1.48953,2.97907 4.23341,4.78219 2.74388,1.72472 6.7421,1.72472 z m 51.27123,8.38843 q -5.87974,0 -9.72117,-1.48954 -3.76303,-1.56793 -5.64455,-5.17416 -1.88151,-3.68464 -1.88151,-9.87796 l 0.0784,-38.57108 h 10.19155 l -0.0784,39.27665 q 0,3.13586 1.64633,4.86058 1.72472,1.64632 4.86058,1.64632 h 6.6637 v 9.32919 z m -23.98933,-35.12163 v -7.99645 h 30.10425 v 7.99645 z m 37.55191,34.57285 v -12.54344 h 12.22985 v 12.54344 z m 17.95273,0 13.87618,-22.73498 -0.23519,1.80312 -13.09221,-21.63744 h 11.83787 l 8.54522,14.97373 h 1.17594 l 8.07484,-14.97373 h 11.13231 l -12.38665,21.55904 0.23519,-1.56793 14.66015,22.57819 h -11.83788 l -10.11314,-16.07128 h -1.17595 l -9.56437,16.07128 z m 49.62498,16.77685 v -9.32918 h 7.99644 q 2.2735,0 3.76303,-0.62717 1.56793,-0.54878 2.58709,-1.88152 1.01915,-1.25434 1.56793,-3.52784 l 11.44589,-43.98044 h 10.42673 l -12.62183,46.33233 q -1.25435,4.78219 -3.52785,7.60446 -2.2735,2.90068 -5.87973,4.15502 -3.52785,1.25434 -8.78041,1.25434 z m 13.24901,-17.71761 v -8.62361 h 9.09399 v 8.62361 z m -3.68464,0 -13.79778,-41.62854 h 10.97551 l 13.09221,41.62854 z m 32.61272,0.94076 v -8.62361 l 21.01026,-25.24368 v 1.25435 l -1.64632,-2.1951 1.33274,0.62717 h -20.77508 v -8.38843 h 32.45616 v 8.62362 l -21.01027,25.24367 v -1.17595 l 1.72473,2.19511 -1.33274,-0.70557 h 21.48064 v 8.38842 z"
         id="text1"
         aria-label="boikot.xyz" />
    </g>
  </g>
</svg>
